<svg xmlns="http://www.w3.org/2000/svg" width="500" height="250" viewBox="0 0 500 250">
  <defs>
    <style>
      .cls-1 {
        stroke: #000;
        stroke-width: 1px;
      }

      .cls-1, .cls-2 {
        fill-rule: evenodd;
      }
    </style>
  </defs>
  <path id="ArrowPoint" class="cls-1" d="M483.915,94.563c-3.088-.386-24.14-24.555-24.14-24.555s-22.36,24.654-24.142,24.555S428,81,428,81s26.194-31.663,31.775-31.822S491,82,491,82,487,94.949,483.915,94.563Z"/>
  <path id="ArrowLine" class="cls-1" d="M11.571,227.547L453,227c9.305-.016,14.019-8.242,14-19V88l-14.783.078-0.955,119.931c0,2.532-1.767,4.587-3.956,4.59l-435.761.052Z"/>
  <path id="VISION" class="cls-2" d="M189.111,146.1a4.407,4.407,0,0,0-3.937-1.7,5.053,5.053,0,0,0-3.772,1.538,4.775,4.775,0,0,0-1.5,3.406,8.425,8.425,0,0,0,.238,1.794,14.467,14.467,0,0,0,.586,1.978q0.348,0.915.678,1.867l12.781,34.79q0.695,2.015,1.391,3.809a16.681,16.681,0,0,0,1.63,3.2,7.054,7.054,0,0,0,2.453,2.271,7.451,7.451,0,0,0,3.718.861,7.318,7.318,0,0,0,3.717-.879,7.224,7.224,0,0,0,2.435-2.253,16.179,16.179,0,0,0,1.611-3.186q0.7-1.812,1.392-3.827l13-35.083q0.33-.951.659-1.849a15.815,15.815,0,0,0,.55-1.831,7.646,7.646,0,0,0,.219-1.739,4.556,4.556,0,0,0-.677-2.326,5.128,5.128,0,0,0-1.868-1.849,5.023,5.023,0,0,0-2.581-.7,4.611,4.611,0,0,0-3,.9,5.294,5.294,0,0,0-1.575,2.014q-0.477,1.118-1.428,3.974l-12.195,36.255-12.158-36A22.675,22.675,0,0,0,189.111,146.1Zm47.973,52.148a5,5,0,0,0,3.864,1.667,5.155,5.155,0,0,0,3.973-1.648,7.133,7.133,0,0,0,1.52-4.981v-42.3a7.059,7.059,0,0,0-1.52-4.962,5.183,5.183,0,0,0-3.973-1.63,5.008,5.008,0,0,0-3.882,1.648,7.128,7.128,0,0,0-1.5,4.944v42.3A7.142,7.142,0,0,0,237.084,198.249Zm60.864-22.229a12.808,12.808,0,0,0-4.028-4.632,24.978,24.978,0,0,0-6.262-3.113,82.109,82.109,0,0,0-8.221-2.344q-3.626-.915-5.2-1.391a16.222,16.222,0,0,1-3.112-1.319,7.367,7.367,0,0,1-2.417-2.014,4.506,4.506,0,0,1-.879-2.783,5.38,5.38,0,0,1,2.581-4.45,11.425,11.425,0,0,1,6.794-1.849q4.541,0,6.591,1.7a13.872,13.872,0,0,1,3.516,4.742,12.557,12.557,0,0,0,2.106,3.058,3.934,3.934,0,0,0,2.838.934,4.379,4.379,0,0,0,3.424-1.556,5.149,5.149,0,0,0,1.373-3.5,9.849,9.849,0,0,0-1.1-4.358,13.649,13.649,0,0,0-3.479-4.266,18.094,18.094,0,0,0-5.988-3.259,26.628,26.628,0,0,0-8.551-1.227,28.664,28.664,0,0,0-10.767,1.849,15.24,15.24,0,0,0-6.994,5.292,13.368,13.368,0,0,0-2.417,7.874,12.835,12.835,0,0,0,2.289,7.782,15.646,15.646,0,0,0,6.189,4.943,50.563,50.563,0,0,0,9.686,3.168q4.32,0.988,6.9,1.868a10.5,10.5,0,0,1,4.211,2.545,5.946,5.946,0,0,1,1.63,4.34,6.776,6.776,0,0,1-3.021,5.621,12.811,12.811,0,0,1-7.855,2.252,12.385,12.385,0,0,1-5.677-1.117,8.971,8.971,0,0,1-3.351-2.838,21.732,21.732,0,0,1-2.215-4.285,8.647,8.647,0,0,0-2.033-3.259,4.136,4.136,0,0,0-2.911-1.1,4.755,4.755,0,0,0-4.871,4.8,13.1,13.1,0,0,0,2.289,7.013,17.476,17.476,0,0,0,5.951,5.768q5.164,3,13.111,3a27.511,27.511,0,0,0,11.462-2.2,16.66,16.66,0,0,0,7.342-6.079,15.776,15.776,0,0,0,2.509-8.752A14.831,14.831,0,0,0,297.948,176.02Zm12.635,22.229a5,5,0,0,0,3.863,1.667,5.157,5.157,0,0,0,3.974-1.648,7.138,7.138,0,0,0,1.519-4.981v-42.3a7.064,7.064,0,0,0-1.519-4.962,5.185,5.185,0,0,0-3.974-1.63,5.01,5.01,0,0,0-3.882,1.648,7.128,7.128,0,0,0-1.5,4.944v42.3A7.137,7.137,0,0,0,310.583,198.249Zm34.149-51.928a22.239,22.239,0,0,0-8.2,5.548,24.32,24.32,0,0,0-5.145,8.789,34.684,34.684,0,0,0-1.777,11.352,35.927,35.927,0,0,0,1.7,11.243,24.488,24.488,0,0,0,5.036,8.9,22.36,22.36,0,0,0,8.313,5.731,32.619,32.619,0,0,0,22.522.055,22.08,22.08,0,0,0,8.276-5.713,24.478,24.478,0,0,0,5.054-8.826,35.9,35.9,0,0,0,1.684-11.316,32.821,32.821,0,0,0-3.076-14.666,21.965,21.965,0,0,0-9.064-9.632,28.667,28.667,0,0,0-14.337-3.387A29.531,29.531,0,0,0,344.732,146.321ZM369.1,182.74a14.43,14.43,0,0,1-5.566,6.446,15.268,15.268,0,0,1-13.66.878,13.677,13.677,0,0,1-4.834-3.643,16.967,16.967,0,0,1-3.259-6.134,27.739,27.739,0,0,1-1.154-8.277,27.066,27.066,0,0,1,1.154-8.185,17.055,17.055,0,0,1,3.149-5.987,13.255,13.255,0,0,1,4.761-3.571,14.7,14.7,0,0,1,6.024-1.226,14.952,14.952,0,0,1,8.112,2.215,14.224,14.224,0,0,1,5.438,6.537,25.2,25.2,0,0,1,1.9,10.217A24.923,24.923,0,0,1,369.1,182.74Zm34.864-34.5a13.279,13.279,0,0,0-1.612-2.087,5.7,5.7,0,0,0-4.339-1.758,6.278,6.278,0,0,0-3.479,1.044,5.9,5.9,0,0,0-2.308,2.691,11.749,11.749,0,0,0-.585,4.138V193.69a6.843,6.843,0,0,0,1.391,4.633,4.669,4.669,0,0,0,3.7,1.593,4.724,4.724,0,0,0,3.662-1.575,6.713,6.713,0,0,0,1.428-4.651V162.232l20.4,31.275q0.879,1.282,1.758,2.508a12.994,12.994,0,0,0,1.9,2.143,6.7,6.7,0,0,0,2.2,1.336,7.75,7.75,0,0,0,2.636.422q5.859,0,5.86-7.068V150.624a6.949,6.949,0,0,0-1.355-4.67,4.654,4.654,0,0,0-3.7-1.556,4.511,4.511,0,0,0-3.607,1.556,7.009,7.009,0,0,0-1.337,4.67v31.933l-20.911-31.64Q404.79,149.525,403.967,148.243Z"/>
  <path id="UP" class="cls-2" d="M13.752,178.438a27.8,27.8,0,0,0,6.9,11.963,28.414,28.414,0,0,0,12.146,6.9,62.407,62.407,0,0,0,17.761,2.228,49.7,49.7,0,0,0,15.137-2.075,29.983,29.983,0,0,0,11.352-6.592,27.051,27.051,0,0,0,7.721-12.329,63.672,63.672,0,0,0,2.045-17.517v-43.03q0-5.553-2.533-8.27A8.64,8.64,0,0,0,77.655,107a8.35,8.35,0,0,0-6.531,2.716q-2.442,2.717-2.441,8.27v44.372q0,11.477-4.394,17.121t-15.015,5.646q-7.69,0-11.963-2.778a14.473,14.473,0,0,1-5.951-7.812,40.13,40.13,0,0,1-1.678-12.543V117.983q0-5.493-2.472-8.24A8.542,8.542,0,0,0,20.526,107a8.327,8.327,0,0,0-6.5,2.746q-2.472,2.746-2.472,8.24v43.03A60.834,60.834,0,0,0,13.752,178.438ZM166.217,156.1q8.422-7.048,8.423-20.721a30.518,30.518,0,0,0-2.075-11.536,22.868,22.868,0,0,0-6.073-8.667A23.657,23.657,0,0,0,157,110.109q-5.554-1.585-15.869-1.587H117.877q-5.982,0-8.728,2.564t-2.746,8.545V188.6q0,5.371,2.5,8.148a9.033,9.033,0,0,0,13.062-.031q2.564-2.806,2.563-8.239v-25.33h16.6Q157.794,163.149,166.217,156.1Zm-13.427-30a13.559,13.559,0,0,1,3.479,9.643,13.118,13.118,0,0,1-2.259,8,12.474,12.474,0,0,1-6.561,4.394,36.437,36.437,0,0,1-10.712,1.343H124.53V122.133h12.207q12.145,0,16.053,3.968h0Z"/>
</svg>
